<svg width="12" height="22" viewBox="0 0 12 22" fill="none" xmlns="http://www.w3.org/2000/svg">
<path d="M3.9483 11.0047L11.4302 2.77415C11.6363 2.54806 11.7496 2.24579 11.7496 1.92348C11.7496 1.60099 11.6363 1.29889 11.4302 1.07246L10.7746 0.351642C10.5689 0.124846 10.294 0 10.001 0C9.70797 0 9.43334 0.124846 9.22748 0.351642L0.319029 10.1508C0.112362 10.3779 -0.000808652 10.6814 4.35631e-06 11.0041C-0.000808652 11.3282 0.112199 11.6314 0.319029 11.8587L9.21919 21.6484C9.42505 21.8752 9.69968 22 9.99285 22C10.2859 22 10.5605 21.8752 10.7665 21.6484L11.422 20.9275C11.8485 20.4584 11.8485 19.6946 11.422 19.2257L3.9483 11.0047Z" fill="#4892F3"/>
</svg>
