<svg width="24" height="24" viewBox="0 0 24 24" fill="none" xmlns="http://www.w3.org/2000/svg">
<rect width="24" height="24" rx="12" fill="#5181B8"/>
<path fill-rule="evenodd" clip-rule="evenodd" d="M20.0821 8.3382C20.2 8.00762 20.0821 7.76465 19.5216 7.76465H17.6683C17.197 7.76465 16.9799 7.97452 16.862 8.20601C16.862 8.20601 15.9195 10.1401 14.5842 11.3964C14.1523 11.7601 13.9559 11.8758 13.7203 11.8758C13.6025 11.8758 13.432 11.7601 13.432 11.4295V8.3382C13.432 7.94142 13.2952 7.76465 12.9024 7.76465H9.98999C9.69557 7.76465 9.51844 7.94877 9.51844 8.12331C9.51844 8.49947 10.1859 8.58618 10.2548 9.64412V11.942C10.2548 12.4458 10.1467 12.5372 9.91109 12.5372C9.2828 12.5372 7.75456 10.5943 6.848 8.3713C6.67034 7.93919 6.49215 7.76465 6.01848 7.76465H4.16511C3.63557 7.76465 3.52966 7.97452 3.52966 8.20601C3.52966 8.61929 4.15809 10.6692 6.45535 13.3802C7.98689 15.2316 10.1446 16.2352 12.1081 16.2352C13.2864 16.2352 13.432 16.0123 13.432 15.6284V14.229C13.432 13.7832 13.5436 13.6943 13.9166 13.6943C14.1916 13.6943 14.6627 13.81 15.7625 14.7026C17.019 15.7607 17.2261 16.2352 17.933 16.2352H19.7864C20.3159 16.2352 20.5807 16.0123 20.4279 15.5724C20.2609 15.1339 19.6609 14.498 18.8647 13.7439C18.4328 13.314 17.7848 12.8511 17.5886 12.6197C17.3136 12.3222 17.3921 12.1899 17.5886 11.9254C17.5886 11.9254 19.8465 9.24745 20.0821 8.3382Z" fill="white"/>
</svg>
