<svg width="26" height="22" viewBox="0 0 26 22" fill="none" xmlns="http://www.w3.org/2000/svg">
<path d="M16.3362 4.44519C14.9248 1.7692 11.9725 0 8.66088 0C3.92234 0 0.0672708 3.55939 0.0672708 7.93444C0.0672708 9.12343 0.342169 10.263 0.884738 11.3256L0.0814796 15.0554C-0.0207649 15.5302 0.430302 15.9499 0.94172 15.856L5.00801 15.1094C5.55551 15.3506 6.12191 15.534 6.70388 15.6604C5.39936 9.92304 10.0827 4.53759 16.3362 4.44519Z" fill="#AEAEB1"/>
<path d="M24.2492 17.1287C24.3895 16.8539 24.5115 16.5739 24.6159 16.2893H24.5891C26.4176 11.3057 22.5723 6.06785 16.8955 5.81281C16.8954 5.81254 16.8954 5.81227 16.8953 5.812C12.0108 5.60298 7.95264 9.23451 7.95264 13.7376C7.95264 18.1089 11.7788 21.6655 16.4849 21.6719C17.7614 21.6703 18.9849 21.4151 20.1258 20.9126C24.5792 21.7301 24.2319 21.672 24.3342 21.672C24.797 21.672 25.1428 21.2782 25.0524 20.8586L24.2492 17.1287Z" fill="#AEAEB1"/>
</svg>
