<svg width="15" height="12" viewBox="0 0 15 12" fill="none" xmlns="http://www.w3.org/2000/svg">
<path d="M13.8348 13.7907L9.85359 9.80953C10.6248 8.85697 11.0891 7.64655 11.0891 6.32824C11.0891 3.27277 8.60292 0.786621 5.54745 0.786621C2.49198 0.786621 0.00585938 3.27275 0.00585938 6.32822C0.00585938 9.38369 2.49201 11.8698 5.54748 11.8698C6.86579 11.8698 8.07621 11.4055 9.02877 10.6343L13.01 14.6156C13.1237 14.7293 13.2731 14.7865 13.4224 14.7865C13.5718 14.7865 13.7211 14.7293 13.8348 14.6156C14.0629 14.3875 14.0629 14.0188 13.8348 13.7907ZM5.54748 10.7032C3.13483 10.7032 1.17252 8.74087 1.17252 6.32822C1.17252 3.91556 3.13483 1.95326 5.54748 1.95326C7.96013 1.95326 9.92244 3.91556 9.92244 6.32822C9.92244 8.74087 7.96011 10.7032 5.54748 10.7032Z" fill="#BDBDBD"/>
</svg>
