<svg width="16" height="16" viewBox="0 0 16 16" fill="none" xmlns="http://www.w3.org/2000/svg">
<path d="M4.37158 3.41163C4.72658 2.1437 5.22555 0.958885 5.82611 0.209229C4.36917 0.623447 3.08492 1.57326 2.09558 2.6676C2.72902 2.96445 3.49389 3.22007 4.37158 3.41163Z" fill="#8A96A3"/>
<path d="M8.46875 0V3.76481C9.24334 3.74463 9.99666 3.67963 10.7109 3.56763C10.1766 1.69631 9.33363 0.334063 8.46875 0Z" fill="#8A96A3"/>
<path d="M7.53214 4.70902C6.66954 4.68877 5.84229 4.61402 5.06432 4.48999C4.87539 5.39658 4.7567 6.41733 4.73004 7.53143H7.53214V4.70902Z" fill="#8A96A3"/>
<path d="M0 7.5314H3.79212C3.81925 6.38493 3.94228 5.30249 4.14884 4.31893C3.14372 4.09737 2.24353 3.79165 1.49284 3.41577C0.660563 4.59352 0.0895 6.0048 0 7.5314Z" fill="#8A96A3"/>
<path d="M7.53062 0C6.66409 0.334688 5.81962 1.70122 5.28546 3.57869C5.98027 3.68528 6.73068 3.75219 7.53062 3.77141V0Z" fill="#8A96A3"/>
<path d="M11.8482 4.30853C12.0561 5.29491 12.1801 6.38081 12.2073 7.53134H15.9994C15.9095 5.99716 15.3332 4.57969 14.4936 3.39844C13.738 3.77441 12.8481 4.08594 11.8482 4.30853Z" fill="#8A96A3"/>
<path d="M4.14803 11.6775C3.94194 10.6949 3.81919 9.61372 3.79212 8.46875H0C0.0886875 9.98253 0.651 11.3835 1.47103 12.5553C2.25975 12.1925 3.15731 11.8924 4.14803 11.6775Z" fill="#8A96A3"/>
<path d="M8.46875 7.53121H11.2708C11.2441 6.41352 11.1247 5.38974 10.9347 4.48096C10.1511 4.60814 9.32272 4.68071 8.46878 4.70171V7.53121H8.46875Z" fill="#8A96A3"/>
<path d="M13.915 13.3203C13.2334 13.0287 12.463 12.785 11.6241 12.6018C11.2693 13.8638 10.7718 15.0439 10.1733 15.7909C11.6357 15.3751 12.9242 14.4208 13.915 13.3203Z" fill="#8A96A3"/>
<path d="M10.1733 0.209229C10.7726 0.957166 11.2705 2.13888 11.6254 3.40295C12.4808 3.21545 13.2417 2.95863 13.8938 2.65657C12.9058 1.56782 11.6254 0.62201 10.1733 0.209229Z" fill="#8A96A3"/>
<path d="M7.53214 8.46875H4.73004C4.7567 9.58134 4.87498 10.6009 5.06351 11.5066C5.84532 11.3828 6.67445 11.3135 7.5321 11.2933V8.46875H7.53214Z" fill="#8A96A3"/>
<path d="M2.08423 13.3202C3.07501 14.4208 4.36348 15.3751 5.82588 15.7909C5.22741 15.0439 4.72994 13.8638 4.3751 12.6018C3.53626 12.785 2.76579 13.0287 2.08423 13.3202Z" fill="#8A96A3"/>
<path d="M11.8521 11.6775C12.8428 11.8924 13.7403 12.1925 14.5291 12.5553C15.3491 11.3835 15.9114 9.98253 16.0001 8.46875H12.208C12.1809 9.61372 12.0581 10.6949 11.8521 11.6775Z" fill="#8A96A3"/>
<path d="M7.53035 16V12.2305C6.7556 12.2507 6.00273 12.3169 5.28735 12.4294C5.82163 14.3025 6.66501 15.6658 7.53035 16Z" fill="#8A96A3"/>
<path d="M8.46875 11.2933C9.32644 11.3135 10.1556 11.3828 10.9373 11.5066C11.1259 10.6009 11.2442 9.58134 11.2708 8.46875H8.46875V11.2933Z" fill="#8A96A3"/>
<path d="M8.46875 16.0001C9.33409 15.6658 10.1775 14.3025 10.7118 12.4294C9.99638 12.3169 9.24353 12.2507 8.46875 12.2305V16.0001Z" fill="#8A96A3"/>
</svg>
