<svg width="10" height="10" viewBox="0 0 10 10" fill="none" xmlns="http://www.w3.org/2000/svg">
<path d="M5.00001 3.69159C5.35989 3.69159 5.65169 3.98339 5.65169 4.34327V7.31451C5.65169 7.67444 5.35989 7.96619 5.00001 7.96619C4.64012 7.96619 4.34833 7.67444 4.34833 7.31451V4.34322C4.34833 3.98334 4.64012 3.69159 5.00001 3.69159Z" fill="#C9C9C9"/>
<path d="M5.00016 3.33685C4.82864 3.33685 4.66019 3.26751 4.53924 3.14604C4.41782 3.02509 4.34848 2.85722 4.34848 2.6857C4.34848 2.51418 4.41782 2.34578 4.53924 2.22483C4.66019 2.10336 4.82864 2.03402 5.00016 2.03402C5.17169 2.03402 5.33956 2.10336 5.46103 2.22483C5.58193 2.34578 5.65185 2.51418 5.65185 2.6857C5.65185 2.85722 5.58193 3.02509 5.46103 3.14604C5.33956 3.26751 5.17169 3.33685 5.00016 3.33685Z" fill="#C9C9C9"/>
<path d="M5 10C2.24303 10 0 7.75702 0 5C0 2.24298 2.24298 0 5 0C7.75702 0 9.99995 2.24298 9.99995 5C9.99995 7.75702 7.75702 10 5 10ZM5 0.782016C2.67418 0.782016 0.782016 2.67418 0.782016 5C0.782016 7.32582 2.67418 9.21798 5 9.21798C7.32577 9.21798 9.21793 7.32582 9.21793 5C9.21793 2.67418 7.32582 0.782016 5 0.782016Z" fill="#C9C9C9"/>
</svg>
