<svg width="11" height="11" viewBox="0 0 11 11" fill="none" xmlns="http://www.w3.org/2000/svg">
<g clip-path="url(#clip0)">
<path d="M4.29449 2.29801C4.24403 2.34888 4.20146 2.40402 4.16446 2.46203L0.297515 6.34544C-0.0795685 6.7243 -0.078397 7.33759 0.300711 7.71496C0.679639 8.09233 1.29288 8.09098 1.6705 7.71194L5.0009 4.36751L8.36343 7.71442C8.74236 8.09179 9.35542 8.09044 9.73322 7.71141C9.92221 7.5218 10.016 7.27359 10.0155 7.02611C10.0149 6.77864 9.92003 6.53066 9.73021 6.34207L5.82822 2.45836C5.79097 2.40052 5.74815 2.3452 5.69746 2.29493C5.50369 2.10204 5.24879 2.00935 4.99536 2.01457C4.74191 2.01046 4.4876 2.10427 4.29449 2.29801Z" fill="#8A96A3"/>
</g>
<defs>
<clipPath id="clip0">
<rect width="9.99801" height="10" fill="white" transform="matrix(0.00220253 0.999998 0.999998 -0.00220165 0 0.0219727)"/>
</clipPath>
</defs>
</svg>
