<svg width="28" height="26" viewBox="0 0 28 26" fill="none" xmlns="http://www.w3.org/2000/svg">
<path fill-rule="evenodd" clip-rule="evenodd" d="M14.299 1.04326C14.0923 0.87399 13.8334 0.781494 13.5663 0.781494C13.2991 0.781494 13.0403 0.87399 12.8336 1.04326L0.423188 11.2183C0.238867 11.3694 0.105749 11.5738 0.0420533 11.8034C-0.0216425 12.0331 -0.0128033 12.2769 0.0673611 12.5013C0.147525 12.7258 0.295098 12.92 0.489879 13.0573C0.684661 13.1947 0.917134 13.2685 1.15548 13.2687H2.95306L3.8719 23.3111C3.91574 23.7898 4.13692 24.2349 4.49204 24.5589C4.84715 24.8829 5.31055 25.0625 5.79127 25.0624H11.6396C11.844 25.0624 12.0401 24.9812 12.1846 24.8367C12.3292 24.6921 12.4104 24.496 12.4104 24.2916V16.8261C12.4104 16.6216 12.4916 16.4256 12.6362 16.281C12.7807 16.1365 12.9768 16.0552 13.1812 16.0552H13.9521C14.1565 16.0552 14.3526 16.1365 14.4971 16.281C14.6417 16.4256 14.7229 16.6216 14.7229 16.8261V24.2916C14.7229 24.496 14.8041 24.6921 14.9487 24.8367C15.0932 24.9812 15.2893 25.0624 15.4937 25.0624H21.3421C21.8228 25.0625 22.2862 24.8829 22.6413 24.5589C22.9964 24.2349 23.2176 23.7898 23.2614 23.3111L24.1803 13.2687H25.9771C26.2155 13.2687 26.4481 13.195 26.643 13.0577C26.8379 12.9204 26.9856 12.7262 27.0658 12.5017C27.1461 12.2772 27.155 12.0334 27.0913 11.8036C27.0277 11.5739 26.8945 11.3694 26.7101 11.2183L14.2997 1.04326H14.299Z" fill="#AEAEB1"/>
</svg>
