<svg width="13" height="13" viewBox="0 0 13 13" fill="none" xmlns="http://www.w3.org/2000/svg">
<g clip-path="url(#clip0)">
<path d="M10.1372 6.2595C10.1279 6.2125 10.1063 6.16882 10.0746 6.1329C10.0429 6.09698 10.0022 6.07012 9.95675 6.05505L6.58886 4.93923L8.58283 0.812128C8.60802 0.756397 8.61372 0.693811 8.59901 0.634446C8.58431 0.575082 8.55005 0.522394 8.50176 0.484866C8.45347 0.447337 8.39395 0.427152 8.3328 0.427561C8.27164 0.427969 8.2124 0.448947 8.16461 0.487117L1.69157 6.30569C1.65471 6.33671 1.62679 6.377 1.6107 6.4224C1.5946 6.46781 1.59091 6.51668 1.59999 6.56399C1.60908 6.6113 1.63062 6.65533 1.6624 6.69154C1.69417 6.72775 1.73503 6.75482 1.78076 6.76998L5.09832 7.86913L3.21937 12.0415C3.19591 12.0976 3.19188 12.1599 3.20792 12.2186C3.22396 12.2772 3.25915 12.3288 3.30789 12.3651C3.35663 12.4015 3.41612 12.4205 3.4769 12.4191C3.53767 12.4177 3.59624 12.396 3.64329 12.3575L10.0484 6.5173C10.0847 6.48603 10.112 6.44569 10.1276 6.4004C10.1432 6.35511 10.1465 6.30649 10.1372 6.2595Z" fill="black"/>
</g>
<defs>
<clipPath id="clip0">
<rect width="13" height="13" fill="white"/>
</clipPath>
</defs>
</svg>
