<svg width="19" height="19" viewBox="0 0 19 19" fill="none" xmlns="http://www.w3.org/2000/svg">
<path d="M9.61206 0.00110857C9.61872 0.00110857 9.62316 0.00110857 9.62316 0.00110857C9.63093 0.00110857 9.63093 0.00110857 9.63537 0.00110857C9.63759 0.00110857 9.64313 0.00110857 9.64535 0.00110857C9.64535 0.00110857 9.64535 0.00110857 9.64979 0.00110857C9.67088 -0.00111106 9.67976 0.00110857 9.69308 0.00110857C12.1491 0.00110857 14.5396 0.973305 16.302 2.68686L18.2531 0.715828C18.343 0.622604 18.485 0.593749 18.6015 0.64369C18.7225 0.692522 18.808 0.812382 18.808 0.94445L18.4817 7.67658H12.1569C12.1535 7.67658 12.1447 7.67658 12.1391 7.67658C11.9638 7.67658 11.8161 7.53119 11.8161 7.34807C11.8161 7.23043 11.8816 7.125 11.9782 7.0684L13.8982 5.12512C12.7595 4.02862 11.279 3.42821 9.64535 3.42821C6.32368 3.44708 3.61574 6.16945 3.61574 9.54328C3.64127 12.8483 6.34255 15.5363 9.69863 15.5607C11.8872 15.443 13.9492 14.1423 14.9358 11.986L18.0466 13.421L18.0256 13.4643C15.8947 17.585 12.5364 19.3207 8.93396 18.9512C4.07853 18.565 0.224152 14.4975 0.190857 9.49556C0.189747 4.30163 4.41259 0.0466109 9.61206 0.00110857Z" fill="#00CB99"/>
</svg>
