<svg width="19" height="19" viewBox="0 0 19 19" fill="none" xmlns="http://www.w3.org/2000/svg">
<g clip-path="url(#clip0)">
<path d="M14.7111 9.95807H16.9375V15.2891H14.7111V9.95807Z" fill="#00CB99"/>
<path d="M10.4948 9.95807H12.7214V15.2891H10.4948V9.95807Z" fill="#00CB99"/>
<path d="M6.27859 9.95807H8.50516V15.2891H6.27859V9.95807Z" fill="#00CB99"/>
<path d="M2.06247 9.95807H4.28889V15.2891H2.06247V9.95807Z" fill="#00CB99"/>
<path d="M17.6799 8.28815V7.73151H1.32028V8.28815C1.32028 8.5956 1.56947 8.84479 1.87692 8.84479H17.1232C17.4305 8.84479 17.6799 8.5956 17.6799 8.28815Z" fill="#00CB99"/>
<path d="M18.4431 16.4023H0.55722C0.249763 16.4023 0.000579834 16.6515 0.000579834 16.959V18.4434C0.000579834 18.7508 0.249763 19 0.55722 19H18.4431C18.7505 19 18.9997 18.7508 18.9997 18.4434V16.959C18.9997 16.6515 18.7505 16.4023 18.4431 16.4023Z" fill="#00CB99"/>
<path d="M0.556041 6.61823H18.4427C18.6918 6.61823 18.9105 6.45283 18.9784 6.21321C19.046 5.97359 18.9466 5.71803 18.7345 5.58757L9.79119 0.0826263C9.61231 -0.0275421 9.38661 -0.0275421 9.20759 0.0826263L0.26424 5.58757C0.0521658 5.71818 -0.0472756 5.97359 0.0205649 6.21321C0.0884054 6.45283 0.307147 6.61823 0.556041 6.61823ZM9.12105 3.27403H9.87787C10.1853 3.27403 10.4345 3.52322 10.4345 3.83067C10.4345 4.13813 10.1853 4.38731 9.87787 4.38731H9.12105C8.81359 4.38731 8.56441 4.13813 8.56441 3.83067C8.56441 3.52322 8.81359 3.27403 9.12105 3.27403Z" fill="#00CB99"/>
</g>
<defs>
<clipPath id="clip0">
<rect width="19" height="19" fill="white"/>
</clipPath>
</defs>
</svg>
