<svg width="16" height="19" viewBox="0 0 16 19" fill="none" xmlns="http://www.w3.org/2000/svg">
<path d="M4.325 7.925C3.19167 7.925 2.25 7.55 1.5 6.8C0.75 6.05 0.375 5.13333 0.375 4.05C0.375 2.98333 0.75 2.075 1.5 1.325C2.26667 0.558332 3.20833 0.174999 4.325 0.174999C5.45833 0.174999 6.4 0.549999 7.15 1.3C7.9 2.05 8.275 2.96667 8.275 4.05C8.275 5.13333 7.9 6.05 7.15 6.8C6.41667 7.55 5.475 7.925 4.325 7.925ZM2.875 5.525C3.25833 5.90833 3.74167 6.1 4.325 6.1C4.90833 6.1 5.38333 5.9 5.75 5.5C6.13333 5.1 6.325 4.61667 6.325 4.05C6.325 3.48333 6.13333 3.00833 5.75 2.625C5.38333 2.225 4.90833 2.025 4.325 2.025C3.74167 2.025 3.25833 2.225 2.875 2.625C2.50833 3.00833 2.325 3.48333 2.325 4.05C2.325 4.63333 2.50833 5.125 2.875 5.525ZM1.55 15.525L13.175 2.525L14.4 3.2L2.75 16.225L1.55 15.525ZM14.7 17.175C13.95 17.925 13.0083 18.3 11.875 18.3C10.7417 18.3 9.8 17.925 9.05 17.175C8.3 16.425 7.925 15.5083 7.925 14.425C7.925 13.3417 8.3 12.425 9.05 11.675C9.8 10.925 10.7417 10.55 11.875 10.55C13.0083 10.55 13.95 10.925 14.7 11.675C15.45 12.425 15.825 13.3417 15.825 14.425C15.825 15.5083 15.45 16.425 14.7 17.175ZM10.425 15.875C10.8083 16.2583 11.2917 16.45 11.875 16.45C12.4583 16.45 12.9333 16.2583 13.3 15.875C13.6833 15.475 13.875 14.9917 13.875 14.425C13.875 13.8583 13.6833 13.3833 13.3 13C12.9333 12.6 12.4583 12.4 11.875 12.4C11.2917 12.4 10.8083 12.6 10.425 13C10.0583 13.3833 9.875 13.8583 9.875 14.425C9.875 14.9917 10.0583 15.475 10.425 15.875Z" fill="#00CB99"/>
</svg>
