<svg width="24" height="19" viewBox="0 0 24 19" fill="none" xmlns="http://www.w3.org/2000/svg">
<path d="M11.9072 0C7.50862 0 3.83251 3.11601 3.00304 7.23602L1.61454 5.40202L0 6.60202L3.02726 10.602C3.22504 10.864 3.52878 11.002 3.83554 11.002C4.04543 11.002 4.25835 10.937 4.43998 10.802L8.47633 7.80202L7.26543 6.20202L4.93444 7.93503C5.45512 4.58001 8.37845 2.00001 11.9072 2.00001C14.4219 2.00001 16.767 3.34301 18.0273 5.50402L19.7741 4.50301C18.1545 1.72601 15.1403 0 11.9072 0Z" fill="#00CB99"/>
<path d="M20.7701 8.37493C20.423 7.94393 19.7913 7.87393 19.3574 8.21493L15.5229 11.2149L16.7731 12.7839L18.87 11.1429C18.316 14.4599 15.4098 16.9999 11.9093 16.9999C9.39569 16.9999 7.05057 15.6589 5.79022 13.4989L4.04349 14.5009C5.66408 17.2759 8.67722 18.9999 11.9093 18.9999C16.3473 18.9999 20.0446 15.8269 20.8307 11.6519L22.423 13.6249L23.9992 12.3759L20.7701 8.37493Z" fill="#00CB99"/>
</svg>
