<svg width="20" height="18" viewBox="0 0 20 18" fill="none" xmlns="http://www.w3.org/2000/svg">
<path d="M14.1899 10.4208C13.6279 10.4208 13.0846 10.3845 12.5705 10.3169V4.68202C13.0845 4.61449 13.6279 4.57819 14.1899 4.57819C17.3991 4.57819 20.0007 5.75811 20.0007 7.21369V7.78525C20.0007 9.24078 17.3991 10.4208 14.1899 10.4208Z" fill="#00CB99"/>
<path d="M14.1899 13.3631C13.6279 13.3631 13.0846 13.3268 12.5705 13.2593V11.6076C13.0847 11.6751 13.6277 11.712 14.1899 11.712C16.9912 11.712 19.3293 10.8129 19.8785 9.61624C19.9585 9.79054 20.0007 9.97102 20.0007 10.156V10.7276C20.0007 12.1832 17.3991 13.3631 14.1899 13.3631Z" fill="#00CB99"/>
<path d="M12.5698 14.6785V14.5501C13.084 14.6176 13.627 14.6544 14.1892 14.6544C16.9905 14.6544 19.3286 13.7553 19.8778 12.5587C19.9578 12.733 20 12.9134 20 13.0985V13.67C20 15.1256 17.3984 16.3056 14.1892 16.3056C13.5474 16.3056 12.9301 16.2583 12.3529 16.1711C12.496 15.8784 12.5698 15.5698 12.5698 15.25V14.6785Z" fill="#00CB99"/>
<path d="M5.81109 0.114502C9.0203 0.114502 11.6219 1.29443 11.6219 2.75V3.32157C11.6219 4.77714 9.0203 5.95707 5.81109 5.95707C2.60193 5.95707 0.000296593 4.77714 0.000296593 3.32157V2.75C0.000296593 1.29443 2.60193 0.114502 5.81109 0.114502Z" fill="#00CB99"/>
<path d="M5.81109 7.24827C8.61238 7.24827 10.9505 6.34922 11.4997 5.15256C11.5797 5.32681 11.6219 5.50729 11.6219 5.69235V6.26391C11.6219 7.71948 9.0203 8.89941 5.81109 8.89941C2.60193 8.89941 0.000296593 7.71948 0.000296593 6.26391V5.69235C0.000296593 5.50729 0.0425282 5.32681 0.122508 5.15256C0.67171 6.34922 3.0098 7.24827 5.81109 7.24827Z" fill="#00CB99"/>
<path d="M5.81109 10.1908C8.61238 10.1908 10.9505 9.29167 11.4997 8.09506C11.5797 8.26932 11.6219 8.44979 11.6219 8.63485V9.20642C11.6219 10.662 9.0203 11.842 5.81109 11.842C2.60193 11.842 0.000296593 10.662 0.000296593 9.20642V8.63485C0.000296593 8.44979 0.0425282 8.26932 0.122508 8.09506C0.67171 9.29172 3.0098 10.1908 5.81109 10.1908Z" fill="#00CB99"/>
<path d="M5.81109 13.292C8.61238 13.292 10.9505 12.3929 11.4997 11.1963C11.5797 11.3706 11.6219 11.551 11.6219 11.736V12.3076C11.6219 13.7632 9.0203 14.9431 5.81109 14.9431C2.60193 14.9431 0.000296593 13.7632 0.000296593 12.3076V11.736C0.000296593 11.551 0.0425282 11.3705 0.122508 11.1963C0.67171 12.3928 3.0098 13.292 5.81109 13.292Z" fill="#00CB99"/>
<path d="M5.81109 16.2343C8.61238 16.2343 10.9505 15.3353 11.4997 14.1387C11.5797 14.313 11.6219 14.4935 11.6219 14.6784V15.25C11.6219 16.7055 9.0203 17.8855 5.81109 17.8855C2.60193 17.8855 0.000296593 16.7055 0.000296593 15.25V14.6783C0.000296593 14.4933 0.0425282 14.3128 0.122508 14.1386C0.67171 15.3352 3.0098 16.2343 5.81109 16.2343Z" fill="#00CB99"/>
</svg>
