<svg width="20" height="25" viewBox="0 0 20 25" fill="none" xmlns="http://www.w3.org/2000/svg">
<path d="M19.7842 21.0865L18.0854 18.1052C17.3008 16.7292 16.8862 15.1531 16.8862 13.549V10.9375C16.8862 7.64062 14.7966 4.8521 11.9392 3.95312V2.08335C11.9392 0.934375 11.0517 0 9.96031 0C8.86897 0 7.98147 0.934375 7.98147 2.08335V3.95312C5.12407 4.8521 3.03443 7.64062 3.03443 10.9375V13.549C3.03443 15.1531 2.61985 16.7281 1.83624 18.1042L0.137429 21.0854C0.0454133 21.2469 0.0434191 21.4469 0.131492 21.6104C0.219566 21.774 0.382819 21.875 0.560913 21.875H19.3598C19.5379 21.875 19.7021 21.774 19.7902 21.6115C19.8782 21.449 19.8753 21.2469 19.7842 21.0865Z" fill="#AEAEB1"/>
<path d="M7.56689 22.5C8.01466 23.9725 8.96258 25 10.0669 25C11.1712 25 12.1191 23.9725 12.5669 22.5H7.56689Z" fill="#AEAEB1"/>
</svg>
