<svg width="18" height="14" viewBox="0 0 18 14" fill="none" xmlns="http://www.w3.org/2000/svg">
<path d="M17.5593 0.417375C17.2656 0.139115 16.9125 0 16.5 0H1.49999C1.0875 0 0.734479 0.139084 0.440563 0.417375C0.146811 0.695698 0 1.03014 0 1.42095V12.2208C0 12.6117 0.146811 12.9462 0.440563 13.2245C0.734479 13.5027 1.0875 13.6419 1.49999 13.6419H16.5C16.9125 13.6419 17.2655 13.5027 17.5593 13.2245C17.853 12.9462 18 12.6117 18 12.2208V1.42095C18 1.03014 17.853 0.695698 17.5593 0.417375ZM16.7999 12.221C16.7999 12.2981 16.7702 12.3645 16.7109 12.4209C16.6515 12.4769 16.5812 12.505 16.5 12.505H1.49999C1.41879 12.505 1.34845 12.4769 1.28908 12.4207C1.22975 12.3643 1.20003 12.2979 1.20003 12.2208V6.82095H16.7999V12.221H16.7999ZM16.7999 3.4103H1.2V1.42082C1.2 1.34386 1.22962 1.27739 1.28905 1.22102C1.34845 1.16493 1.41879 1.13678 1.49996 1.13678H16.5C16.5811 1.13678 16.6515 1.16481 16.7108 1.22102C16.7702 1.27739 16.7998 1.34386 16.7998 1.42082V3.4103H16.7999Z" fill="white"/>
<path d="M4.80007 10.2314H2.40012V11.3683H4.80007V10.2314Z" fill="white"/>
<path d="M9.59999 10.2314H6.00003V11.3683H9.59999V10.2314Z" fill="white"/>
</svg>
