<svg width="15" height="14" viewBox="0 0 15 14" fill="none" xmlns="http://www.w3.org/2000/svg">
<g clip-path="url(#clip0)">
<path d="M6.89032 0C10.6887 0 13.7797 2.77594 13.7797 6.22825C13.7797 7.39725 13.4361 8.49319 12.8105 9.42419C12.7897 9.46138 12.7292 9.443 12.7292 9.40669C12.4868 7.87194 11.4566 7.01356 9.94113 6.776C9.82016 6.7585 9.77903 6.685 9.96097 6.66663C10.426 6.62988 11.0923 6.62987 11.416 6.685C11.4363 6.53931 11.4363 6.37437 11.4363 6.20988C11.4369 5.6676 11.3191 5.13056 11.0898 4.62948C10.8605 4.1284 10.5242 3.67314 10.1 3.28976C9.67589 2.90638 9.17227 2.6024 8.61801 2.39525C8.06375 2.18809 7.46975 2.08181 6.87 2.0825C6.27025 2.08181 5.67625 2.18809 5.12199 2.39525C4.56773 2.6024 4.06411 2.90638 3.63996 3.28976C3.2158 3.67314 2.87945 4.1284 2.65016 4.62948C2.42087 5.13056 2.30314 5.6676 2.30371 6.20988C2.30314 6.75217 2.42086 7.28924 2.65015 7.79034C2.87944 8.29144 3.21578 8.74673 3.63993 9.13015C4.06407 9.51356 4.56769 9.81758 5.12195 10.0248C5.67621 10.232 6.27023 10.3383 6.87 10.3377H7.09258L7.06113 10.1658C7.01029 9.85402 6.9936 9.53851 7.01129 9.22381C7.03161 8.96788 7.09258 8.93156 7.21306 9.13238C7.83968 10.1181 8.74887 11.0136 10.5068 11.361C11.941 11.6524 13.396 11.9998 14.9521 13.7716C15.0934 13.9173 14.8916 14.0823 14.7295 13.9541C13.1337 12.6757 11.6985 12.2741 10.3863 12.2741C8.91097 12.2741 7.92048 12.4569 6.88984 12.4569C3.09194 12.4569 0 9.66175 0 6.22825C0 2.79475 3.07113 0 6.89032 0ZM10.4056 9.82625C10.5677 9.84506 10.7492 9.89931 10.8905 10.0091C11.1934 10.2463 11.295 10.5201 11.1329 10.7214C11.0526 10.8308 10.8905 10.8859 10.7294 10.8859C10.5602 10.888 10.3956 10.8363 10.2644 10.7397C9.98177 10.5201 9.90048 10.1553 10.0829 9.954C10.124 9.9137 10.1739 9.88155 10.2295 9.85956C10.285 9.83757 10.345 9.82623 10.4056 9.82625ZM11.9211 8.82175C12.1834 8.91319 12.285 9.26013 12.3048 9.42419C12.3455 9.69894 12.2647 9.80787 12.1635 9.80787C12.0619 9.80787 11.9211 9.6985 11.7798 9.47931C11.6182 9.26056 11.5781 9.02256 11.6385 8.89525C11.6787 8.80338 11.7997 8.76663 11.9211 8.82219V8.82175Z" fill="white"/>
<path d="M6.89032 0C10.6887 0 13.7797 2.77594 13.7797 6.22825C13.7797 7.39725 13.4361 8.49319 12.8105 9.42419C12.7897 9.46138 12.7292 9.443 12.7292 9.40669C12.4868 7.87194 11.4566 7.01356 9.94113 6.776C9.82016 6.7585 9.77903 6.685 9.96097 6.66663C10.426 6.62988 11.0923 6.62987 11.416 6.685C11.4363 6.53931 11.4363 6.37437 11.4363 6.20988C11.4369 5.6676 11.3191 5.13056 11.0898 4.62948C10.8605 4.1284 10.5242 3.67314 10.1 3.28976C9.67589 2.90638 9.17227 2.6024 8.61801 2.39525C8.06375 2.18809 7.46975 2.08181 6.87 2.0825C6.27025 2.08181 5.67625 2.18809 5.12199 2.39525C4.56773 2.6024 4.06411 2.90638 3.63996 3.28976C3.2158 3.67314 2.87945 4.1284 2.65016 4.62948C2.42087 5.13056 2.30314 5.6676 2.30371 6.20988C2.30314 6.75217 2.42086 7.28924 2.65015 7.79034C2.87944 8.29144 3.21578 8.74673 3.63993 9.13015C4.06407 9.51356 4.56769 9.81758 5.12195 10.0248C5.67621 10.232 6.27023 10.3383 6.87 10.3377H7.09258L7.06113 10.1658C7.01029 9.85402 6.9936 9.53851 7.01129 9.22381C7.03161 8.96788 7.09258 8.93156 7.21306 9.13238C7.83968 10.1181 8.74887 11.0136 10.5068 11.361C11.941 11.6524 13.396 11.9998 14.9521 13.7716C15.0934 13.9173 14.8916 14.0823 14.7295 13.9541C13.1337 12.6757 11.6985 12.2741 10.3863 12.2741C8.91097 12.2741 7.92048 12.4569 6.88984 12.4569C3.09194 12.4569 0 9.66175 0 6.22825C0 2.79475 3.07113 0 6.89032 0ZM10.4056 9.82625C10.5677 9.84506 10.7492 9.89931 10.8905 10.0091C11.1934 10.2463 11.295 10.5201 11.1329 10.7214C11.0526 10.8308 10.8905 10.8859 10.7294 10.8859C10.5602 10.888 10.3956 10.8363 10.2644 10.7397C9.98177 10.5201 9.90048 10.1553 10.0829 9.954C10.124 9.9137 10.1739 9.88155 10.2295 9.85956C10.285 9.83757 10.345 9.82623 10.4056 9.82625ZM11.9211 8.82175C12.1834 8.91319 12.285 9.26013 12.3048 9.42419C12.3455 9.69894 12.2647 9.80787 12.1635 9.80787C12.0619 9.80787 11.9211 9.6985 11.7798 9.47931C11.6182 9.26056 11.5781 9.02256 11.6385 8.89525C11.6787 8.80338 11.7997 8.76663 11.9211 8.82219V8.82175Z" fill="url(#paint0_linear)"/>
</g>
<defs>
<linearGradient id="paint0_linear" x1="2.76968" y1="1.90663" x2="6.95366" y2="14.1859" gradientUnits="userSpaceOnUse">
<stop stop-color="white"/>
<stop offset="1" stop-color="white"/>
</linearGradient>
<clipPath id="clip0">
<rect width="15" height="14" fill="white"/>
</clipPath>
</defs>
</svg>
