<svg width="14" height="14" viewBox="0 0 14 14" fill="none" xmlns="http://www.w3.org/2000/svg">
<rect x="0.5" y="0.5" width="13" height="13" rx="6.5" fill="#F9DC67" stroke="white"/>
<path d="M7 6C7.55224 6 8 6.34131 8 6.76227V10.2377C8 10.6587 7.55224 11 7 11C6.44776 11 6 10.6587 6 10.2377V6.76221C6 6.34125 6.44776 6 7 6Z" fill="white"/>
<path d="M7 5C6.7368 5 6.47832 4.89356 6.29272 4.70708C6.1064 4.52141 6 4.26371 6 4.0004C6 3.73709 6.1064 3.47859 6.29272 3.29292C6.47832 3.10644 6.7368 3 7 3C7.2632 3 7.5208 3.10644 7.7072 3.29292C7.89272 3.47859 8 3.73709 8 4.0004C8 4.26371 7.89272 4.52141 7.7072 4.70708C7.5208 4.89356 7.2632 5 7 5Z" fill="white"/>
</svg>
