<svg width="18" height="18" viewBox="0 0 18 18" fill="none" xmlns="http://www.w3.org/2000/svg">
<path d="M8.95718 9.13561e-05C10.3614 9.13561e-05 11.6975 0.326686 12.8965 0.911138C13.0846 0.997243 13.2738 1.10035 13.4612 1.20364L12.6391 1.94302L11.4067 0.653463L9.28304 2.54457L8.03244 1.18618L4.12747 4.7108L6.62757 7.47886L5.65152 8.33835L8.11823 11.1064L7.1421 11.9654L10.6705 15.9027L12.7588 13.977L14.5751 16.0407C14.2151 16.3158 13.8212 16.5915 13.3935 16.8318C12.0434 17.5992 10.5217 18.0014 8.97446 18C4.02431 18 5.66111e-05 13.9605 5.66111e-05 8.99227C-0.0174065 4.05762 4.00756 0 8.95718 0V9.13561e-05ZM7.31268 8.44173L9.45371 6.51599L11.3723 8.66495L9.23092 10.5905L7.31268 8.44173ZM8.83746 12.1555L10.9609 10.2127L12.8965 12.3615L10.7554 14.2873L8.83746 12.1555ZM5.78934 4.77991L7.92965 2.85416L9.84789 5.00312L7.70677 6.92878L5.78934 4.77982V4.77991ZM9.71061 3.74793L11.3035 2.3038L12.7426 3.90277L11.1496 5.36399L9.71061 3.74793ZM12.554 10.3671L14.1464 8.9229L15.5854 10.5386L13.9923 11.9837L12.554 10.3671ZM13.9583 13.6169L15.5513 12.1724L16.9891 13.7714L15.3967 15.2324L13.9583 13.617V13.6169ZM14.6092 6.1893L15.6709 5.22643L16.6297 6.29277L15.5681 7.25528L14.6092 6.1893ZM13.2391 3.00864L14.3009 2.02885L15.2605 3.11183L14.1978 4.07462L13.2392 3.00864H13.2391ZM15.9621 9.37024L17.0239 8.40746L18 9.47344L16.9214 10.4359L15.962 9.37015L15.9621 9.37024ZM11.1838 6.98033L12.7769 5.53611L14.2152 7.13481L12.6228 8.5793L11.1838 6.98033Z" fill="white"/>
</svg>
