<svg width="22" height="25" viewBox="0 0 22 25" fill="none" xmlns="http://www.w3.org/2000/svg">
<path d="M10.6981 12.044C12.4109 12.044 13.8941 11.4506 15.1059 10.2797C16.3178 9.10904 16.9321 7.67664 16.9321 6.02182C16.9321 4.36758 16.3178 2.93499 15.1057 1.76393C13.8937 0.593446 12.4107 0 10.6981 0C8.98513 0 7.50237 0.593446 6.29053 1.76412C5.07869 2.9348 4.46418 4.36739 4.46418 6.02182C4.46418 7.67664 5.07869 9.10923 6.29073 10.2799C7.50276 11.4504 8.98572 12.044 10.6981 12.044Z" fill="#AEAEB1"/>
<path d="M21.6081 19.2228C21.5732 18.7356 21.5025 18.2042 21.3984 17.643C21.2933 17.0776 21.1581 16.5431 20.9962 16.0546C20.8289 15.5496 20.6014 15.051 20.3202 14.5731C20.0284 14.0772 19.6856 13.6453 19.3009 13.2899C18.8987 12.9181 18.4062 12.6192 17.8367 12.4012C17.2692 12.1843 16.6403 12.0744 15.9675 12.0744C15.7033 12.0744 15.4478 12.1791 14.9543 12.4895C14.6506 12.6808 14.2954 12.9021 13.8989 13.1468C13.5598 13.3555 13.1005 13.5511 12.5332 13.7281C11.9797 13.9011 11.4178 13.9888 10.8631 13.9888C10.3084 13.9888 9.74661 13.9011 9.19252 13.7281C8.6258 13.5513 8.1665 13.3557 7.82784 13.147C7.43509 12.9046 7.07965 12.6833 6.77141 12.4893C6.27854 12.1789 6.02282 12.0742 5.75861 12.0742C5.08565 12.0742 4.45693 12.1843 3.88961 12.4014C3.32052 12.619 2.82784 12.9179 2.42521 13.2901C2.04075 13.6457 1.69775 14.0774 1.4063 14.5731C1.1253 15.051 0.897825 15.5494 0.730375 16.0547C0.568652 16.5433 0.433389 17.0776 0.328338 17.643C0.224274 18.2034 0.153581 18.7351 0.11863 19.2234C0.0842714 19.7018 0.0668945 20.1984 0.0668945 20.6999C0.0668945 22.005 0.49638 23.0616 1.34331 23.8409C2.17977 24.6098 3.28655 24.9999 4.63247 24.9999H17.0949C18.4408 24.9999 19.5472 24.61 20.3838 23.8409C21.2309 23.0622 21.6604 22.0054 21.6604 20.6997C21.6602 20.1959 21.6427 19.699 21.6081 19.2228Z" fill="#AEAEB1"/>
</svg>
