<svg width="25" height="22" viewBox="0 0 25 22" fill="none" xmlns="http://www.w3.org/2000/svg">
<path d="M16.1385 9.81111C17.5231 9.81111 18.7221 9.32769 19.7017 8.37389C20.6813 7.42025 21.1779 6.25342 21.1779 4.9054C21.1779 3.55784 20.6813 2.39085 19.7016 1.43691C18.7218 0.483423 17.523 0 16.1385 0C14.7538 0 13.5551 0.483423 12.5755 1.43706C11.5959 2.3907 11.0991 3.55769 11.0991 4.9054C11.0991 6.25342 11.5959 7.42041 12.5757 8.37405C13.5555 9.32753 14.7542 9.81111 16.1385 9.81111Z" fill="#4892F3" fill-opacity="0.5"/>
<path d="M24.9579 15.6593C24.9297 15.2624 24.8725 14.8295 24.7884 14.3723C24.7035 13.9118 24.5941 13.4764 24.4632 13.0784C24.328 12.6671 24.1441 12.2609 23.9168 11.8716C23.6809 11.4676 23.4038 11.1158 23.0929 10.8263C22.7677 10.5235 22.3696 10.28 21.9092 10.1023C21.4505 9.92566 20.942 9.83615 20.3982 9.83615C20.1846 9.83615 19.9781 9.92146 19.5792 10.1743C19.3336 10.3301 19.0465 10.5104 18.7259 10.7098C18.4519 10.8798 18.0806 11.039 17.622 11.1832C17.1745 11.3242 16.7202 11.3957 16.2719 11.3957C15.8235 11.3957 15.3693 11.3242 14.9214 11.1832C14.4633 11.0392 14.092 10.8799 13.8182 10.7099C13.5007 10.5124 13.2134 10.3322 12.9642 10.1741C12.5658 9.92131 12.3591 9.836 12.1455 9.836C11.6015 9.836 11.0932 9.92566 10.6346 10.1025C10.1746 10.2798 9.77633 10.5233 9.45085 10.8265C9.14006 11.1161 8.86279 11.4678 8.62718 11.8716C8.40003 12.2609 8.21614 12.6669 8.08078 13.0786C7.95004 13.4765 7.8407 13.9118 7.75578 14.3723C7.67166 14.8289 7.61451 15.262 7.58626 15.6598C7.55848 16.0495 7.54443 16.454 7.54443 16.8625C7.54443 17.9257 7.89162 18.7864 8.57626 19.4212C9.25244 20.0475 10.1471 20.3653 11.2352 20.3653H21.3095C22.3975 20.3653 23.2919 20.0477 23.9682 19.4212C24.653 18.7869 25.0002 17.926 25.0002 16.8623C25.0001 16.4519 24.9859 16.0472 24.9579 15.6593Z" fill="#4892F3" fill-opacity="0.5"/>
<path d="M8.05747 11.3201C9.44207 11.3201 10.641 10.8367 11.6207 9.88293C12.6003 8.92929 13.0969 7.76245 13.0969 6.41443C13.0969 5.06688 12.6003 3.89989 11.6205 2.94594C10.6407 1.99246 9.44191 1.50903 8.05747 1.50903C6.67271 1.50903 5.47408 1.99246 4.49445 2.94609C3.51482 3.89973 3.01807 5.06672 3.01807 6.41443C3.01807 7.76245 3.51482 8.92944 4.49461 9.88308C5.4744 10.8366 6.67319 11.3201 8.05747 11.3201Z" fill="#4892F3"/>
<path d="M17.4135 17.1683C17.3852 16.7715 17.3281 16.3385 17.244 15.8814C17.159 15.4208 17.0497 14.9854 16.9188 14.5874C16.7836 14.1761 16.5997 13.7699 16.3724 13.3807C16.1365 12.9766 15.8594 12.6248 15.5484 12.3353C15.2233 12.0325 14.8251 11.789 14.3648 11.6114C13.906 11.4347 13.3976 11.3452 12.8538 11.3452C12.6402 11.3452 12.4336 11.4305 12.0347 11.6833C11.7892 11.8392 11.502 12.0194 11.1815 12.2188C10.9074 12.3888 10.5361 12.5481 10.0775 12.6923C9.63011 12.8332 9.17581 12.9047 8.72742 12.9047C8.27903 12.9047 7.82489 12.8332 7.37698 12.6923C6.91885 12.5482 6.54756 12.389 6.2738 12.219C5.9563 12.0215 5.66897 11.8412 5.4198 11.6832C5.02137 11.4303 4.81465 11.345 4.60107 11.345C4.05707 11.345 3.54882 11.4347 3.09021 11.6115C2.63017 11.7888 2.2319 12.0323 1.90642 12.3355C1.59563 12.6251 1.31836 12.9768 1.08275 13.3807C0.855598 13.7699 0.671708 14.176 0.536345 14.5876C0.405611 14.9855 0.296267 15.4208 0.211345 15.8814C0.127222 16.3379 0.070076 16.771 0.0418222 17.1688C0.0140471 17.5585 0 17.963 0 18.3715C0 19.4347 0.347188 20.2954 1.03183 20.9302C1.708 21.5566 2.60271 21.8744 3.69072 21.8744H13.7651C14.8531 21.8744 15.7475 21.5567 16.4238 20.9302C17.1086 20.2959 17.4558 19.435 17.4558 18.3714C17.4556 17.961 17.4414 17.5562 17.4135 17.1683Z" fill="#4892F3"/>
</svg>
