<svg width="25" height="25" viewBox="0 0 25 25" fill="none" xmlns="http://www.w3.org/2000/svg">
<g clip-path="url(#clip0)">
<path d="M14.7084 11.0715C15.9288 12.2919 15.9288 14.2706 14.7084 15.4911C13.488 16.7115 11.5093 16.7115 10.2889 15.4911C9.06843 14.2706 9.06843 12.2919 10.2889 11.0715C11.5093 9.85108 13.488 9.85108 14.7084 11.0715Z" fill="#00CB9A"/>
<path d="M21.8749 4.68724H19.7157L18.1524 1.56213H6.84608L5.28426 4.68878L3.12813 4.69262C1.40919 4.69569 0.00987809 6.09648 0.00839381 7.81619L0 20.312C0 22.0355 1.40156 23.4378 3.12511 23.4378H21.8749C23.5985 23.4378 25.0001 22.0363 25.0001 20.3127V7.8123C25 6.0888 23.5984 4.68724 21.8749 4.68724ZM12.4996 19.5314C9.05329 19.5314 6.2494 16.7276 6.2494 13.2812C6.2494 9.8349 9.05329 7.03101 12.4996 7.03101C15.9459 7.03101 18.7498 9.8349 18.7498 13.2812C18.7498 16.7276 15.9459 19.5314 12.4996 19.5314Z" fill="#00CB9A"/>
</g>
<defs>
<clipPath id="clip0">
<rect width="25" height="25" fill="white"/>
</clipPath>
</defs>
</svg>
