<svg width="20" height="20" viewBox="0 0 20 20" fill="none" xmlns="http://www.w3.org/2000/svg">
<path d="M10 0C4.48566 0 0 4.48566 0 10C0 15.5143 4.48566 20 10 20C15.5143 20 20 15.5143 20 10C20 4.48566 15.5143 0 10 0ZM9.58332 16.6667C8.89402 16.6667 8.33332 16.106 8.33332 15.4167C8.33332 14.7274 8.89402 14.1667 9.58332 14.1667C10.2726 14.1667 10.8333 14.7274 10.8333 15.4167C10.8333 16.106 10.2726 16.6667 9.58332 16.6667ZM10.8333 11.5837V12.9167C10.8333 13.147 10.647 13.3334 10.4166 13.3334H8.75C8.51969 13.3334 8.33332 13.147 8.33332 12.9167V10.8334C8.33332 9.91457 9.08121 9.16668 10 9.16668C10.9188 9.16668 11.6667 8.41879 11.6667 7.5C11.6667 6.58121 10.9188 5.83332 10 5.83332C9.08121 5.83332 8.33332 6.58121 8.33332 7.5V7.91668C8.33332 8.14699 8.14695 8.33336 7.91664 8.33336H6.25C6.01969 8.33336 5.83332 8.14699 5.83332 7.91668V7.5C5.83332 5.20262 7.70262 3.33332 10 3.33332C12.2974 3.33332 14.1667 5.20266 14.1667 7.5C14.1667 9.49953 12.758 11.1939 10.8333 11.5837Z" fill="#404040"/>
</svg>
