<svg width="23" height="23" viewBox="0 0 23 23" fill="none" xmlns="http://www.w3.org/2000/svg">
<path d="M5.37524 4.20272L14.5442 1.69999L14.0586 0.718524C13.7409 0.0805726 12.9661 -0.182873 12.3281 0.134811L4.12 4.20272H5.37524Z" fill="white"/>
<path d="M17.3897 1.77215C17.2761 1.77215 17.1625 1.78764 17.0488 1.81864L14.8948 2.40751L8.31638 4.20256H15.7832H19.0376L18.6347 2.7252C18.4797 2.14923 17.958 1.77215 17.3897 1.77215Z" fill="white"/>
<path d="M20.3834 5.10656H20.089H19.6887H19.2883H16.2329H5.00546H3.53327H2.29353H2.06366H1.29398C0.8859 5.10656 0.521725 5.2951 0.284108 5.59213C0.17563 5.72901 0.0929807 5.88657 0.0464904 6.05961C0.0180796 6.16809 0 6.28173 0 6.39796V6.55293V8.02512V20.7867C0 21.4996 0.578547 22.0781 1.2914 22.0781H20.3809C21.0937 22.0781 21.6723 21.4996 21.6723 20.7867V17.1837H14.0091C12.7978 17.1837 11.8137 16.1997 11.8137 14.9883V13.8054V13.4051V13.0048V12.1163C11.8137 11.5222 12.0513 10.9825 12.4362 10.5873C12.7771 10.236 13.2343 9.99838 13.7457 9.93898C13.8309 9.92867 13.9187 9.92348 14.0065 9.92348H20.5978H20.9982H21.3985H21.6723V6.39796C21.6748 5.68511 21.0963 5.10656 20.3834 5.10656Z" fill="white"/>
<path d="M22.5789 11.1582C22.4498 11.0394 22.2974 10.949 22.127 10.8896C21.9952 10.8457 21.8558 10.8199 21.7085 10.8199H21.675H21.6491H21.2488H19.805H14.0092C13.2964 10.8199 12.7178 11.3984 12.7178 12.1113V12.7544V13.1547V13.5551V14.9859C12.7178 15.6988 13.2964 16.2773 14.0092 16.2773H21.675H21.7085C21.8558 16.2773 21.9952 16.2515 22.127 16.2076C22.2974 16.1508 22.4498 16.0578 22.5789 15.939C22.8372 15.7039 22.9999 15.363 22.9999 14.9859V12.1113C22.9999 11.7342 22.8372 11.3932 22.5789 11.1582ZM16.7057 13.8056C16.7057 14.162 16.4164 14.4513 16.06 14.4513H15.6312C15.2748 14.4513 14.9855 14.162 14.9855 13.8056V13.3768C14.9855 13.1702 15.0811 12.9868 15.2335 12.8706C15.3445 12.7854 15.4815 12.7311 15.6312 12.7311H15.7397H16.06C16.4164 12.7311 16.7057 13.0204 16.7057 13.3768V13.8056Z" fill="white"/>
</svg>
