<svg width="25" height="27" viewBox="0 0 25 27" fill="none" xmlns="http://www.w3.org/2000/svg">
<path d="M21.6057 7.67137L23.4204 5.85787C23.8603 5.41912 23.8603 4.707 23.4204 4.26712C22.9805 3.82725 22.2695 3.82725 21.8296 4.26712L20.015 6.08062C18.2443 4.617 16.0381 3.66075 13.625 3.43237V2.25H15.875C16.4971 2.25 17 1.746 17 1.125C17 0.504 16.4971 0 15.875 0H9.125C8.50287 0 8 0.504 8 1.125C8 1.746 8.50287 2.25 9.125 2.25H11.375V3.43237C5.38775 4.0005 0.6875 9.054 0.6875 15.1875C0.6875 21.7012 5.98625 27 12.5 27C19.0138 27 24.3125 21.7012 24.3125 15.1875C24.3125 12.3345 23.2955 9.71549 21.6057 7.67137ZM16.55 20.5875C16.3475 20.7394 16.1101 20.8125 15.8761 20.8125C15.5341 20.8125 15.1966 20.6572 14.975 20.3625L11.6 15.8625C11.4537 15.6679 11.375 15.4316 11.375 15.1875V9C11.375 8.37787 11.879 7.875 12.5 7.875C13.121 7.875 13.625 8.37787 13.625 9V14.8129L16.775 19.0125C17.1474 19.5097 17.0473 20.2151 16.55 20.5875Z" fill="white"/>
</svg>
