<svg width="7" height="13" viewBox="0 0 7 13" fill="none" xmlns="http://www.w3.org/2000/svg">
<path d="M4.64774 6.50275L0.190257 1.63927C0.0675197 1.50567 0 1.32706 0 1.1366C0 0.946041 0.0675197 0.767528 0.190257 0.633724L0.580846 0.207789C0.70339 0.0737724 0.867201 0 1.04177 0C1.21633 0 1.37995 0.0737724 1.50259 0.207789L6.80993 5.99818C6.93306 6.13241 7.00048 6.31176 7 6.50243C7.00048 6.69394 6.93316 6.87309 6.80993 7.00742L1.50753 12.7922C1.38489 12.9262 1.22127 13 1.04661 13C0.872045 13 0.708427 12.9262 0.58569 12.7922L0.195198 12.3663C-0.0588984 12.089 -0.0588984 11.6377 0.195198 11.3606L4.64774 6.50275Z" fill="white"/>
</svg>
