<svg width="10" height="10" viewBox="0 0 10 10" fill="none" xmlns="http://www.w3.org/2000/svg">
<path d="M5.00001 3.69161C5.35989 3.69161 5.65169 3.9834 5.65169 4.34329V7.31452C5.65169 7.67446 5.35989 7.9662 5.00001 7.9662C4.64012 7.9662 4.34833 7.67446 4.34833 7.31452V4.34323C4.34833 3.98335 4.64012 3.69161 5.00001 3.69161Z" fill="#D2EFE6"/>
<path d="M5.00016 3.33687C4.82864 3.33687 4.66019 3.26753 4.53924 3.14606C4.41782 3.02511 4.34848 2.85723 4.34848 2.68571C4.34848 2.51419 4.41782 2.3458 4.53924 2.22485C4.66019 2.10338 4.82864 2.03404 5.00016 2.03404C5.17169 2.03404 5.33956 2.10338 5.46103 2.22485C5.58193 2.3458 5.65185 2.51419 5.65185 2.68571C5.65185 2.85723 5.58193 3.02511 5.46103 3.14606C5.33956 3.26753 5.17169 3.33687 5.00016 3.33687Z" fill="#D2EFE6"/>
<path d="M5 10C2.24303 10 0 7.75702 0 5C0 2.24298 2.24298 0 5 0C7.75702 0 9.99995 2.24298 9.99995 5C9.99995 7.75702 7.75702 10 5 10ZM5 0.782016C2.67418 0.782016 0.782016 2.67418 0.782016 5C0.782016 7.32582 2.67418 9.21798 5 9.21798C7.32577 9.21798 9.21793 7.32582 9.21793 5C9.21793 2.67418 7.32582 0.782016 5 0.782016Z" fill="#D2EFE6"/>
</svg>
