<svg width="10" height="17" viewBox="0 0 10 17" fill="none" xmlns="http://www.w3.org/2000/svg">
<path d="M3.36037 8.50359L9.7282 2.14366C9.90354 1.96896 10 1.73538 10 1.48633C10 1.23713 9.90354 1.00369 9.7282 0.828715L9.17022 0.271724C8.99516 0.0964715 8.76114 0 8.51176 0C8.26239 0 8.02865 0.0964715 7.85345 0.271724L0.271523 7.84377C0.0956306 8.0193 -0.000688238 8.25385 3.70763e-06 8.50318C-0.000688238 8.75362 0.0954922 8.98789 0.271523 9.16355L7.84639 16.7283C8.02159 16.9035 8.25533 17 8.50484 17C8.75422 17 8.98796 16.9035 9.1633 16.7283L9.72115 16.1713C10.0841 15.8088 10.0841 15.2186 9.72115 14.8562L3.36037 8.50359Z" fill="white"/>
</svg>
