<svg width="23" height="23" viewBox="0 0 23 23" fill="none" xmlns="http://www.w3.org/2000/svg">
<path d="M22.2812 0.000671387H0.71875C0.322 0.000671387 0 0.322671 0 0.71942V10.7819C0 11.1787 0.322 11.5007 0.71875 11.5007H3.36088C3.933 10.4987 4.31681 9.52985 4.55256 8.62566H4.3125C3.519 8.62566 2.875 7.98166 2.875 7.18816V4.31317C2.875 3.51967 3.519 2.87567 4.3125 2.87567H18.6875C19.481 2.87567 20.125 3.51967 20.125 4.31317V7.18816C20.125 7.84941 19.6693 8.38129 19.0627 8.54947C18.8945 9.48241 18.6171 10.4728 18.2074 11.5007H22.2812C22.678 11.5007 23 11.1787 23 10.7819V0.71942C23 0.322671 22.678 0.000671387 22.2812 0.000671387Z" fill="white"/>
<path d="M17.7603 4.31311H6.2488C6.50324 6.18186 6.44142 9.24374 4.41886 12.5629C0.734551 18.6062 2.8793 22.4759 2.9713 22.6384C3.09924 22.8612 3.33786 22.9992 3.59518 22.9992H13.6577C13.9121 22.9992 14.1464 22.8612 14.2758 22.6427C14.4052 22.4242 14.4081 22.1496 14.2844 21.9268C14.2097 21.7931 12.4991 18.5803 15.709 13.3119C17.8954 9.7253 18.0234 6.43774 17.7603 4.31311ZM8.62499 6.46936C8.62499 6.07261 8.94699 5.75061 9.34374 5.75061C9.74049 5.75061 10.0625 6.07261 10.0625 6.46936V7.90686C10.0625 8.30361 9.74049 8.62561 9.34374 8.62561C8.94699 8.62561 8.62499 8.30361 8.62499 7.90686V6.46936ZM11.5 19.4069C11.5 19.8036 11.178 20.1256 10.7812 20.1256C10.3845 20.1256 10.0625 19.8036 10.0625 19.4069V17.9694C10.0625 17.5726 10.3845 17.2506 10.7812 17.2506C11.178 17.2506 11.5 17.5726 11.5 17.9694V19.4069ZM10.0625 15.4537C8.87367 15.4537 7.90624 14.3253 7.90624 12.9381C7.90624 11.5509 8.87367 10.4225 10.0625 10.4225C11.2513 10.4225 12.2187 11.5509 12.2187 12.9381C12.2187 14.3253 11.2513 15.4537 10.0625 15.4537Z" fill="white"/>
</svg>
