<svg width="7" height="7" viewBox="0 0 7 7" fill="none" xmlns="http://www.w3.org/2000/svg">
<path d="M6.375 2.875H4.25C4.18097 2.875 4.125 2.81903 4.125 2.75V0.625C4.125 0.279846 3.84515 0 3.5 0C3.15485 0 2.875 0.279846 2.875 0.625V2.75C2.875 2.81903 2.81903 2.875 2.75 2.875H0.625C0.279846 2.875 0 3.15485 0 3.5C0 3.84515 0.279846 4.125 0.625 4.125H2.75C2.81903 4.125 2.875 4.18097 2.875 4.25V6.375C2.875 6.72015 3.15485 7 3.5 7C3.84515 7 4.125 6.72015 4.125 6.375V4.25C4.125 4.18097 4.18097 4.125 4.25 4.125H6.375C6.72015 4.125 7 3.84515 7 3.5C7 3.15485 6.72015 2.875 6.375 2.875Z" fill="white"/>
</svg>
