<svg width="25" height="25" viewBox="0 0 25 25" fill="none" xmlns="http://www.w3.org/2000/svg">
<path d="M12.4405 0.000126883C14.3909 0.000126883 16.2466 0.453731 17.9119 1.26547C18.173 1.38506 18.4358 1.52826 18.6961 1.67172L17.5543 2.69864L15.8426 0.907588L12.8931 3.53412L11.1562 1.64747L5.73259 6.54278L9.20495 10.3873L7.84934 11.581L11.2753 15.4256L9.91958 16.6187L14.8201 22.0871L17.7206 19.4125L20.2432 22.2788C19.7432 22.6609 19.1961 23.0438 18.6021 23.3775C16.7269 24.4433 14.6135 25.002 12.4645 25C5.58932 25 7.86266e-05 19.3896 7.86266e-05 12.4893C-0.0241757 5.63558 5.56606 0 12.4405 0V0.000126883ZM10.1565 11.7246L13.1301 9.04998L15.7949 12.0347L12.8207 14.709L10.1565 11.7246ZM12.2742 16.8826L15.2235 14.1843L17.9119 17.1688L14.9381 19.8435L12.2742 16.8826ZM8.04075 6.63876L11.0134 3.96411L13.6776 6.94878L10.7038 9.6233L8.04075 6.63863V6.63876ZM13.487 5.20546L15.6994 3.19973L17.6981 5.42052L15.4856 7.44999L13.487 5.20546ZM17.4362 14.3988L19.6478 12.3929L21.6464 14.6369L19.4338 16.6441L17.4362 14.3988ZM19.3865 18.9123L21.599 16.9061L23.596 19.1269L21.3844 21.1561L19.3865 18.9125V18.9123ZM20.2905 8.59625L21.7652 7.25893L23.0968 8.73996L21.6224 10.0768L20.2905 8.59625ZM18.3876 4.17866L19.8623 2.81785L21.1951 4.32199L19.7192 5.65919L18.3877 4.17866H18.3876ZM22.1696 13.0142L23.6443 11.677L25 13.1575L23.502 14.4944L22.1695 13.0141L22.1696 13.0142ZM15.5331 9.6949L17.7457 7.68904L19.7433 9.90945L17.5317 11.9157L15.5331 9.6949Z" fill="#036CB5"/>
</svg>
