<svg width="25" height="27" viewBox="0 0 25 27" fill="none" xmlns="http://www.w3.org/2000/svg">
<g clip-path="url(#clip0)">
<path d="M11.4839 0C17.8145 0 22.9661 5.16357 22.9661 11.5853C22.9661 13.7598 22.3935 15.7983 21.3508 17.5301C21.3161 17.5993 21.2153 17.5651 21.2153 17.4976C20.8113 14.6427 19.0944 13.0461 16.5685 12.6042C16.3669 12.5716 16.2984 12.4349 16.6016 12.4007C17.3766 12.3324 18.4871 12.3324 19.0266 12.4349C19.0605 12.1639 19.0605 11.8571 19.0605 11.5511C19.0614 10.5424 18.8652 9.54345 18.4831 8.61138C18.1009 7.67932 17.5403 6.83248 16.8334 6.11935C16.1265 5.40621 15.2871 4.84078 14.3634 4.45544C13.4396 4.0701 12.4496 3.87241 11.45 3.8737C10.4504 3.87241 9.46041 4.0701 8.53665 4.45544C7.61288 4.84078 6.77351 5.40621 6.06659 6.11935C5.35967 6.83248 4.79909 7.67932 4.41693 8.61138C4.03478 9.54345 3.83856 10.5424 3.83952 11.5511C3.83856 12.5598 4.03477 13.5588 4.41692 14.491C4.79906 15.4231 5.35963 16.27 6.06654 16.9832C6.77345 17.6964 7.61282 18.2619 8.53659 18.6473C9.46035 19.0327 10.4504 19.2305 11.45 19.2293H11.821L11.7685 18.9095C11.6838 18.3296 11.656 17.7428 11.6855 17.1574C11.7194 16.6813 11.821 16.6138 12.0218 16.9873C13.0661 18.8208 14.5815 20.4867 17.5113 21.1328C19.9016 21.6748 22.3266 22.321 24.9202 25.6169C25.1556 25.8879 24.8194 26.1947 24.5492 25.9562C21.8895 23.5783 19.4976 22.8312 17.3105 22.8312C14.8516 22.8312 13.2008 23.1714 11.4831 23.1714C5.15323 23.1714 0 17.972 0 11.5853C0 5.19857 5.11855 0 11.4839 0ZM17.3427 18.278C17.6129 18.313 17.9153 18.4139 18.1508 18.6182C18.6556 19.0592 18.825 19.5687 18.5548 19.943C18.421 20.1465 18.1508 20.249 17.8823 20.249C17.6003 20.253 17.326 20.1568 17.1073 19.9772C16.6363 19.5687 16.5008 18.89 16.8048 18.5156C16.8734 18.4407 16.9565 18.3808 17.0491 18.34C17.1417 18.2991 17.2417 18.278 17.3427 18.278ZM19.8685 16.4095C20.3056 16.5796 20.475 17.2249 20.5081 17.5301C20.5758 18.0412 20.4411 18.2438 20.2726 18.2438C20.1032 18.2438 19.8685 18.0404 19.6331 17.6326C19.3637 17.2257 19.2968 16.783 19.3976 16.5462C19.4645 16.3753 19.6661 16.307 19.8685 16.4103V16.4095Z" fill="white"/>
<path d="M11.4839 0C17.8145 0 22.9661 5.16357 22.9661 11.5853C22.9661 13.7598 22.3935 15.7983 21.3508 17.5301C21.3161 17.5993 21.2153 17.5651 21.2153 17.4976C20.8113 14.6427 19.0944 13.0461 16.5685 12.6042C16.3669 12.5716 16.2984 12.4349 16.6016 12.4007C17.3766 12.3324 18.4871 12.3324 19.0266 12.4349C19.0605 12.1639 19.0605 11.8571 19.0605 11.5511C19.0614 10.5424 18.8652 9.54345 18.4831 8.61138C18.1009 7.67932 17.5403 6.83248 16.8334 6.11935C16.1265 5.40621 15.2871 4.84078 14.3634 4.45544C13.4396 4.0701 12.4496 3.87241 11.45 3.8737C10.4504 3.87241 9.46041 4.0701 8.53665 4.45544C7.61288 4.84078 6.77351 5.40621 6.06659 6.11935C5.35967 6.83248 4.79909 7.67932 4.41693 8.61138C4.03478 9.54345 3.83856 10.5424 3.83952 11.5511C3.83856 12.5598 4.03477 13.5588 4.41692 14.491C4.79906 15.4231 5.35963 16.27 6.06654 16.9832C6.77345 17.6964 7.61282 18.2619 8.53659 18.6473C9.46035 19.0327 10.4504 19.2305 11.45 19.2293H11.821L11.7685 18.9095C11.6838 18.3296 11.656 17.7428 11.6855 17.1574C11.7194 16.6813 11.821 16.6138 12.0218 16.9873C13.0661 18.8208 14.5815 20.4867 17.5113 21.1328C19.9016 21.6748 22.3266 22.321 24.9202 25.6169C25.1556 25.8879 24.8194 26.1947 24.5492 25.9562C21.8895 23.5783 19.4976 22.8312 17.3105 22.8312C14.8516 22.8312 13.2008 23.1714 11.4831 23.1714C5.15323 23.1714 0 17.972 0 11.5853C0 5.19857 5.11855 0 11.4839 0ZM17.3427 18.278C17.6129 18.313 17.9153 18.4139 18.1508 18.6182C18.6556 19.0592 18.825 19.5687 18.5548 19.943C18.421 20.1465 18.1508 20.249 17.8823 20.249C17.6003 20.253 17.326 20.1568 17.1073 19.9772C16.6363 19.5687 16.5008 18.89 16.8048 18.5156C16.8734 18.4407 16.9565 18.3808 17.0491 18.34C17.1417 18.2991 17.2417 18.278 17.3427 18.278ZM19.8685 16.4095C20.3056 16.5796 20.475 17.2249 20.5081 17.5301C20.5758 18.0412 20.4411 18.2438 20.2726 18.2438C20.1032 18.2438 19.8685 18.0404 19.6331 17.6326C19.3637 17.2257 19.2968 16.783 19.3976 16.5462C19.4645 16.3753 19.6661 16.307 19.8685 16.4103V16.4095Z" fill="url(#paint0_linear)"/>
</g>
<defs>
<linearGradient id="paint0_linear" x1="4.61613" y1="3.54655" x2="13.0858" y2="25.8184" gradientUnits="userSpaceOnUse">
<stop stop-color="#FFC04C"/>
<stop offset="1" stop-color="#FD8C25"/>
</linearGradient>
<clipPath id="clip0">
<rect width="25" height="26.0417" fill="white"/>
</clipPath>
</defs>
</svg>
