<svg width="15" height="15" viewBox="0 0 15 15" fill="none" xmlns="http://www.w3.org/2000/svg">
<path d="M14.8425 6.62425C14.6883 6.306 14.4314 6.04905 14.1132 5.89494L2.25656 0.157586C1.4755 -0.22082 0.535612 0.105624 0.157206 0.886683C-0.035573 1.28464 -0.0517786 1.74542 0.11261 2.15594L2.17434 7.30924L0.11261 12.4631C-0.208524 13.2715 0.186548 14.1873 0.995015 14.5084C1.17782 14.581 1.37262 14.6187 1.56933 14.6196C1.80732 14.6196 2.04224 14.5659 2.25656 14.4625L14.1131 8.72355C14.8943 8.34523 15.2208 7.40534 14.8425 6.62425ZM1.80032 13.518C1.53993 13.6441 1.22665 13.5352 1.1006 13.2748C1.03636 13.1421 1.03102 12.9886 1.08583 12.8517L3.09308 7.83304H13.549L1.80032 13.518ZM3.09311 6.78542L1.08586 1.76673C1.00232 1.56667 1.05419 1.33565 1.21523 1.19054C1.37112 1.03864 1.6065 1.00301 1.80032 1.10202L13.549 6.78542H3.09311Z" fill="#469BFC"/>
<path d="M1 1H2L14 7H2.5L1 3V1Z" fill="#469BFC"/>
<path d="M1 14H2.07692L14 8L13 7.5L2.61538 7L1 11.6667V14Z" fill="#469BFC"/>
</svg>
