<svg width="16" height="17" viewBox="0 0 16 17" fill="none" xmlns="http://www.w3.org/2000/svg">
<path d="M10.6249 9.20821C10.2332 9.20821 9.91661 9.52558 9.91661 9.91649V12.7499C9.91661 13.1402 9.59923 13.4582 9.20819 13.4582H7.08322V2.83327C7.08322 2.22835 6.69788 1.6879 6.11852 1.48673L5.9088 1.41657H9.20819C9.59923 1.41657 9.91661 1.73459 9.91661 2.12498V4.24996C9.91661 4.64087 10.2332 4.95825 10.6249 4.95825C11.0166 4.95825 11.3332 4.64087 11.3332 4.24996V2.12498C11.3332 0.953414 10.3798 0 9.20819 0H1.59373C1.56676 0 1.54419 0.012062 1.51799 0.0155638C1.48388 0.0127105 1.45132 0 1.4167 0C0.635392 0 0 0.635264 0 1.41657V14.1665C0 14.7714 0.385334 15.3118 0.964696 15.513L5.22749 16.934C5.37198 16.9786 5.51568 16.9999 5.66665 16.9999C6.44795 16.9999 7.08322 16.3645 7.08322 15.5832V14.8749H9.20819C10.3798 14.8749 11.3332 13.9215 11.3332 12.7499V9.91649C11.3332 9.52558 11.0166 9.20821 10.6249 9.20821Z" fill="#469BFC"/>
<path d="M15.7911 6.5825L12.9578 3.74924C12.7553 3.54665 12.4506 3.48569 12.1858 3.59541C11.9216 3.70527 11.7487 3.96376 11.7487 4.25V6.37498H8.91544C8.5244 6.37498 8.20703 6.69222 8.20703 7.08326C8.20703 7.4743 8.5244 7.79154 8.91544 7.79154H11.7487V9.91652C11.7487 10.2028 11.9216 10.4613 12.1858 10.5711C12.4506 10.6808 12.7553 10.6199 12.9578 10.4174L15.7911 7.58403C16.068 7.30712 16.068 6.8594 15.7911 6.5825Z" fill="#469BFC"/>
</svg>
