<svg width="17" height="16" viewBox="0 0 17 16" fill="none" xmlns="http://www.w3.org/2000/svg">
<path d="M16.4261 6.80198L10.4244 0.223419C10.2286 0.00909441 9.92851 -0.0581831 9.6673 0.0528159C9.40507 0.164886 9.2333 0.432925 9.2333 0.731123V3.8987H9.00252C4.03869 3.8987 0 8.16163 0 13.4011V14.863C0 15.202 0.226213 15.4847 0.539157 15.5618C0.590047 15.5754 0.640767 15.5813 0.691487 15.5813C0.952866 15.5813 1.20309 15.4194 1.32397 15.1651C2.62224 12.4235 5.23248 10.7209 8.13639 10.7209H9.2333V13.8882C9.2333 14.1866 9.40507 14.4547 9.6673 14.5657C9.92682 14.6777 10.2286 14.6096 10.4244 14.3951L16.4261 7.8165C16.6846 7.53293 16.6846 7.08662 16.4261 6.80198Z" fill="#469BFC"/>
</svg>
