<svg width="17" height="17" viewBox="0 0 17 17" fill="none" xmlns="http://www.w3.org/2000/svg">
<g clip-path="url(#clip0)">
<path d="M3.97296 3.4469L10.7501 1.59704L10.3912 0.871602C10.1563 0.400069 9.58363 0.205347 9.11209 0.440159L3.04517 3.4469H3.97296Z" fill="#469BFC"/>
<path d="M12.8534 1.65036C12.7694 1.65036 12.6854 1.66181 12.6014 1.68472L11.0093 2.11998L6.14697 3.44676H11.666H14.0714L13.7736 2.35479C13.659 1.92908 13.2734 1.65036 12.8534 1.65036Z" fill="#469BFC"/>
<path d="M15.0661 4.11496H14.8485H14.5526H14.2567H11.9983H3.69972H2.61157H1.69523H1.52532H0.956429C0.654801 4.11496 0.385626 4.25432 0.209994 4.47386C0.129815 4.57504 0.0687254 4.69149 0.0343627 4.8194C0.0133633 4.89958 0 4.98357 0 5.06948V5.18402V6.27217V15.7047C0 16.2317 0.427625 16.6593 0.95452 16.6593H15.0642C15.5911 16.6593 16.0188 16.2317 16.0188 15.7047V13.0416H10.3546C9.45929 13.0416 8.73195 12.3143 8.73195 11.4189V10.5446V10.2487V9.9528V9.29609C8.73195 8.85701 8.90756 8.45804 9.19203 8.16596C9.44402 7.90631 9.78192 7.73068 10.1599 7.68677C10.2229 7.67916 10.2878 7.67532 10.3527 7.67532H15.2246H15.5205H15.8164H16.0188V5.06948C16.0207 4.54258 15.593 4.11496 15.0661 4.11496Z" fill="#469BFC"/>
<path d="M16.6889 8.58796C16.5934 8.50014 16.4808 8.43332 16.3548 8.38942C16.2574 8.35698 16.1543 8.33789 16.0455 8.33789H16.0207H16.0016H15.7057H14.6385H10.3547C9.82775 8.33789 9.40015 8.7655 9.40015 9.29241V9.76774V10.0636V10.3595V11.4172C9.40015 11.944 9.82775 12.3717 10.3547 12.3717H16.0207H16.0455C16.1543 12.3717 16.2574 12.3526 16.3548 12.3201C16.4808 12.2781 16.5934 12.2094 16.6889 12.1216C16.8798 11.9479 17 11.6959 17 11.4172V9.29241C17 9.01367 16.8798 8.76166 16.6889 8.58796ZM12.3477 10.5447C12.3477 10.8082 12.1339 11.022 11.8704 11.022H11.5535C11.2901 11.022 11.0763 10.8082 11.0763 10.5447V10.2278C11.0763 10.0751 11.1469 9.93954 11.2595 9.85363C11.3416 9.79063 11.4428 9.75056 11.5535 9.75056H11.6337H11.8704C12.1339 9.75056 12.3477 9.96436 12.3477 10.2278V10.5447Z" fill="#469BFC"/>
</g>
<defs>
<clipPath id="clip0">
<rect width="17" height="17" fill="white"/>
</clipPath>
</defs>
</svg>
