<svg width="17" height="17" viewBox="0 0 17 17" fill="none" xmlns="http://www.w3.org/2000/svg">
<g clip-path="url(#clip0)">
<path d="M15.4727 2.9216H11.6192C12.1244 2.19698 12.0545 1.19029 11.4085 0.544323C10.6836 -0.180668 9.50396 -0.180668 8.77901 0.544323C8.69763 0.625703 8.60044 0.743541 8.50003 0.94286C8.39959 0.743541 8.30244 0.625703 8.22106 0.544323C7.4961 -0.180668 6.3165 -0.180668 5.59154 0.544323C4.94557 1.19029 4.87571 2.19694 5.3809 2.9216H1.52734C0.683818 2.9216 0 3.60542 0 4.44894V5.64426C0 6.48778 0.683818 7.1716 1.52734 7.1716H6.74023C6.83191 7.1716 6.90625 7.09726 6.90625 7.00558V3.75765C7.03677 3.78731 7.17961 3.81606 7.33706 3.84342C7.56716 3.88343 7.78597 3.91318 7.96875 3.93473V7.00555C7.96875 7.09723 8.04309 7.17157 8.13477 7.17157H8.86523C8.95691 7.17157 9.03125 7.09723 9.03125 7.00555V3.93473C9.21403 3.91318 9.43284 3.8834 9.66294 3.84342C9.82039 3.81606 9.96323 3.78731 10.0938 3.75765V7.00558C10.0938 7.09726 10.1681 7.1716 10.2598 7.1716H15.4727C16.3162 7.1716 17 6.48778 17 5.64426V4.44894C17 3.60542 16.3162 2.9216 15.4727 2.9216ZM7.51908 2.79662C6.57528 2.63253 6.36381 2.44357 6.34279 2.42256C6.03211 2.11184 6.03211 1.60632 6.34279 1.29561C6.49815 1.14025 6.70222 1.06259 6.90628 1.06259C7.11035 1.06259 7.31442 1.14025 7.46977 1.29561C7.49066 1.31649 7.67855 1.5267 7.84235 2.46333C7.86619 2.59966 7.88614 2.73274 7.90264 2.85549C7.78268 2.83932 7.65266 2.81987 7.51908 2.79662ZM9.48949 2.79513C9.35315 2.81897 9.22011 2.83892 9.09736 2.85543C9.11349 2.7355 9.13298 2.60547 9.15619 2.4719C9.32028 1.5281 9.50924 1.31663 9.53026 1.29561C9.68562 1.14025 9.88968 1.06259 10.0938 1.06259C10.2978 1.06259 10.5019 1.14025 10.6572 1.29561C10.9679 1.60632 10.9679 2.11184 10.6572 2.42256C10.6364 2.44348 10.4261 2.63134 9.48949 2.79513Z" fill="#469BFC"/>
<path d="M7.96875 8.39993V16.8335C7.96875 16.9252 8.04309 16.9995 8.13477 16.9995H8.86523C8.95691 16.9995 9.03125 16.9252 9.03125 16.8335V8.39993C9.03125 8.30826 8.95691 8.23392 8.86523 8.23392H8.13477C8.04309 8.23392 7.96875 8.30826 7.96875 8.39993Z" fill="#469BFC"/>
<path d="M6.74023 8.23392H1.59375C1.30033 8.23392 1.0625 8.47175 1.0625 8.76517V15.4722C1.0625 16.3157 1.74632 16.9995 2.58984 16.9995H6.74023C6.83191 16.9995 6.90625 16.9252 6.90625 16.8335V8.39993C6.90625 8.30826 6.83191 8.23392 6.74023 8.23392Z" fill="#469BFC"/>
<path d="M15.4062 8.23392H10.2598C10.1681 8.23392 10.0938 8.30826 10.0938 8.39993V16.8335C10.0938 16.9252 10.1681 16.9995 10.2598 16.9995H14.4102C15.2537 16.9995 15.9375 16.3157 15.9375 15.4722V8.76517C15.9375 8.47175 15.6997 8.23392 15.4062 8.23392Z" fill="#469BFC"/>
</g>
<defs>
<clipPath id="clip0">
<rect width="17" height="17" fill="white"/>
</clipPath>
</defs>
</svg>
