<svg width="17" height="17" viewBox="0 0 17 17" fill="none" xmlns="http://www.w3.org/2000/svg">
<path d="M16.4158 6.60823L15.1388 6.33061C15.0278 5.99063 14.8902 5.65901 14.7278 5.33956L15.4348 4.23987C15.5611 4.04339 15.5333 3.78542 15.3683 3.62037L13.3788 1.63092C13.2138 1.46587 12.9558 1.43811 12.7593 1.56436L11.6596 2.27133C11.3402 2.10895 11.0085 1.97141 10.6686 1.86036L10.3909 0.583327C10.3414 0.355149 10.1393 0.192383 9.90581 0.192383H7.09238C6.85888 0.192383 6.65682 0.355149 6.60725 0.583327L6.32964 1.86036C5.98965 1.97141 5.65803 2.10895 5.33859 2.27133L4.2389 1.56436C4.04241 1.43811 3.78444 1.46587 3.61939 1.63092L1.62994 3.62037C1.46489 3.78542 1.43713 4.04339 1.56339 4.23987L2.27036 5.33956C2.10797 5.65901 1.97043 5.99063 1.85938 6.33061L0.582351 6.60823C0.354173 6.65792 0.191406 6.85986 0.191406 7.09336V9.90679C0.191406 10.1403 0.354173 10.3422 0.582351 10.3919L1.85938 10.6695C1.97043 11.0095 2.10797 11.3411 2.27036 11.6606L1.56339 12.7603C1.43713 12.9568 1.46489 13.2147 1.62994 13.3798L3.61939 15.3692C3.78444 15.5343 4.04241 15.562 4.2389 15.4358L5.33859 14.7288C5.65803 14.8912 5.98965 15.0287 6.32964 15.1398L6.60725 16.4168C6.65682 16.645 6.85888 16.8078 7.09238 16.8078H9.90581C10.1393 16.8078 10.3414 16.645 10.3909 16.4168L10.6686 15.1398C11.0085 15.0287 11.3402 14.8912 11.6596 14.7288L12.7593 15.4358C12.9558 15.562 13.2138 15.5344 13.3788 15.3692L15.3683 13.3798C15.5333 13.2147 15.5611 12.9568 15.4348 12.7603L14.7278 11.6606C14.8902 11.3411 15.0278 11.0095 15.1388 10.6695L16.4158 10.3919C16.644 10.3422 16.8068 10.1403 16.8068 9.90679V7.09336C16.8068 6.85986 16.644 6.65792 16.4158 6.60823ZM11.478 8.50008C11.478 10.1426 10.1416 11.4789 8.4991 11.4789C6.8566 11.4789 5.52024 10.1426 5.52024 8.50008C5.52024 6.85758 6.8566 5.52122 8.4991 5.52122C10.1416 5.52122 11.478 6.85758 11.478 8.50008Z" fill="white"/>
</svg>
