<svg width="16" height="16" viewBox="0 0 16 16" fill="none" xmlns="http://www.w3.org/2000/svg">
<g clip-path="url(#clip0)">
<path d="M3.73943 3.24409L10.1179 1.50304L9.78008 0.820281C9.55908 0.376485 9.02006 0.193218 8.57626 0.414217L2.86621 3.24409H3.73943Z" fill="white"/>
<path d="M12.0971 1.55322C12.0181 1.55322 11.939 1.564 11.8599 1.58556L10.3615 1.99522L5.78516 3.24396H10.9795H13.2434L12.9631 2.21622C12.8553 1.81555 12.4924 1.55322 12.0971 1.55322Z" fill="white"/>
<path d="M14.1799 3.8728H13.9751H13.6966H13.4181H11.2925H3.48209H2.45795H1.59551H1.4356H0.900169C0.616283 3.8728 0.362942 4.00397 0.197642 4.21059C0.122179 4.30582 0.0646828 4.41542 0.0323414 4.5358C0.0125772 4.61126 0 4.69032 0 4.77117V4.87898V5.90312V14.7808C0 15.2767 0.402471 15.6792 0.898372 15.6792H14.1781C14.674 15.6792 15.0765 15.2767 15.0765 14.7808V12.2744H9.74554C8.90287 12.2744 8.21831 11.5898 8.21831 10.7471V9.92423V9.64574V9.36724V8.74916C8.21831 8.33591 8.38359 7.96041 8.65132 7.68551C8.88849 7.44113 9.20651 7.27583 9.56227 7.23451C9.62156 7.22734 9.68265 7.22373 9.74374 7.22373H14.329H14.6075H14.886H15.0765V4.77117C15.0783 4.27527 14.6758 3.8728 14.1799 3.8728Z" fill="white"/>
<path d="M15.7071 8.08277C15.6173 8.00012 15.5113 7.93723 15.3927 7.89591C15.301 7.86538 15.204 7.84741 15.1016 7.84741H15.0783H15.0603H14.7818H13.7774H9.74554C9.24962 7.84741 8.84717 8.24986 8.84717 8.74578V9.19316V9.47165V9.75015V10.7455C8.84717 11.2414 9.24962 11.6439 9.74554 11.6439H15.0783H15.1016C15.204 11.6439 15.3011 11.6259 15.3927 11.5954C15.5113 11.5559 15.6173 11.4912 15.7071 11.4085C15.8868 11.245 16 11.0079 16 10.7456V8.74578C16 8.48344 15.8868 8.24625 15.7071 8.08277ZM11.6213 9.92443C11.6213 10.1724 11.4201 10.3736 11.1722 10.3736H10.8739C10.6259 10.3736 10.4247 10.1724 10.4247 9.92443V9.62617C10.4247 9.48243 10.4912 9.35484 10.5972 9.27399C10.6745 9.2147 10.7697 9.17699 10.8739 9.17699H10.9494H11.1722C11.4201 9.17699 11.6213 9.3782 11.6213 9.62617V9.92443Z" fill="white"/>
</g>
<defs>
<clipPath id="clip0">
<rect width="16" height="16" fill="white"/>
</clipPath>
</defs>
</svg>
