<svg width="16" height="17" viewBox="0 0 16 17" fill="none" xmlns="http://www.w3.org/2000/svg">
<path d="M13.5262 4.76717C13.5262 3.70576 13.5262 2.96321 13.5262 2.89278C13.5262 2.10449 13.002 1.46316 12.3576 1.46316H12.2018V3.21047C12.2018 3.47365 12.0274 3.68701 11.8123 3.68701C11.5972 3.68701 11.4228 3.47365 11.4228 3.21047C11.4228 2.67551 11.4228 1.20163 11.4228 0.668923C11.4228 0.405746 11.2484 0.192383 11.0332 0.192383C10.8181 0.192383 10.6437 0.405746 10.6437 0.668923V1.46316H8.0469V3.21047C8.0469 3.47365 7.87249 3.68701 7.65737 3.68701C7.44225 3.68701 7.26785 3.47365 7.26785 3.21047C7.26785 2.67551 7.26785 1.20163 7.26785 0.668923C7.26785 0.405746 7.09345 0.192383 6.87833 0.192383C6.66321 0.192383 6.4888 0.405746 6.4888 0.668923V1.46316H3.89198V3.21047C3.89198 3.47365 3.71758 3.68701 3.50246 3.68701C3.28734 3.68701 3.11294 3.47365 3.11294 3.21047C3.11294 2.67551 3.11294 1.20163 3.11294 0.668923C3.11294 0.405746 2.93854 0.192383 2.72342 0.192383C2.5083 0.192383 2.33389 0.405746 2.33389 0.668923V1.46316H1.39904C0.754689 1.46316 0.230469 2.10449 0.230469 2.89278V4.76717H13.5262Z" fill="white"/>
<path d="M0.230957 5.71973V13.4397C0.230957 14.228 0.755177 14.8693 1.39953 14.8693H12.3581C13.0025 14.8693 13.5267 14.228 13.5267 13.4397C13.5267 13.2356 13.5267 8.77556 13.5267 5.71973C13.2843 5.71973 0.365057 5.71973 0.230957 5.71973ZM3.97038 12.3278H3.13939C2.92427 12.3278 2.74987 12.1144 2.74987 11.8512C2.74987 11.588 2.92427 11.3747 3.13939 11.3747H3.97038C4.1855 11.3747 4.3599 11.588 4.3599 11.8512C4.3599 12.1144 4.1855 12.3278 3.97038 12.3278ZM3.97038 10.2945H3.13939C2.92427 10.2945 2.74987 10.0812 2.74987 9.81798C2.74987 9.5548 2.92427 9.34144 3.13939 9.34144H3.97038C4.1855 9.34144 4.3599 9.5548 4.3599 9.81798C4.3599 10.0812 4.1855 10.2945 3.97038 10.2945ZM3.97038 8.26128H3.13939C2.92427 8.26128 2.74987 8.04791 2.74987 7.78474C2.74987 7.52156 2.92427 7.3082 3.13939 7.3082H3.97038C4.1855 7.3082 4.3599 7.52156 4.3599 7.78474C4.3599 8.04791 4.1855 8.26128 3.97038 8.26128ZM7.29431 12.3278H6.46332C6.2482 12.3278 6.0738 12.1144 6.0738 11.8512C6.0738 11.588 6.2482 11.3747 6.46332 11.3747H7.29431C7.50943 11.3747 7.68383 11.588 7.68383 11.8512C7.68383 12.1144 7.50943 12.3278 7.29431 12.3278ZM7.29431 10.2945H6.46332C6.2482 10.2945 6.0738 10.0812 6.0738 9.81798C6.0738 9.5548 6.2482 9.34144 6.46332 9.34144H7.29431C7.50943 9.34144 7.68383 9.5548 7.68383 9.81798C7.68383 10.0812 7.50943 10.2945 7.29431 10.2945ZM7.29431 8.26128H6.46332C6.2482 8.26128 6.0738 8.04791 6.0738 7.78474C6.0738 7.52156 6.2482 7.3082 6.46332 7.3082H7.29431C7.50943 7.3082 7.68383 7.52156 7.68383 7.78474C7.68383 8.04791 7.50943 8.26128 7.29431 8.26128ZM10.6182 12.3278H9.78725C9.57213 12.3278 9.39773 12.1144 9.39773 11.8512C9.39773 11.588 9.57213 11.3747 9.78725 11.3747H10.6182C10.8334 11.3747 11.0078 11.588 11.0078 11.8512C11.0078 12.1144 10.8334 12.3278 10.6182 12.3278ZM10.6182 10.2945H9.78725C9.57213 10.2945 9.39773 10.0812 9.39773 9.81798C9.39773 9.5548 9.57213 9.34144 9.78725 9.34144H10.6182C10.8334 9.34144 11.0078 9.5548 11.0078 9.81798C11.0078 10.0812 10.8334 10.2945 10.6182 10.2945ZM10.6182 8.26128H9.78725C9.57213 8.26128 9.39773 8.04791 9.39773 7.78474C9.39773 7.52156 9.57213 7.3082 9.78725 7.3082H10.6182C10.8334 7.3082 11.0078 7.52156 11.0078 7.78474C11.0078 8.04791 10.8334 8.26128 10.6182 8.26128Z" fill="white"/>
<rect x="8.01904" y="9.05371" width="7.78846" height="7.75385" rx="3.87692" fill="white"/>
<path d="M13.5119 12.0437L12.8936 11.3051C12.8641 11.2699 12.8198 11.2593 12.7812 11.2785C12.7427 11.2977 12.7175 11.3423 12.7175 11.392V11.7613H11.3778C10.7516 11.7613 10.2441 12.3675 10.2441 13.1155C10.2441 13.1834 10.2903 13.2386 10.3472 13.2386H10.7594C10.8163 13.2386 10.8625 13.1834 10.8625 13.1155C10.8625 12.7755 11.0931 12.4999 11.3778 12.4999H12.7175V12.8693C12.7175 12.919 12.7427 12.964 12.7812 12.983C12.8198 13.0022 12.8641 12.9916 12.8936 12.9564L13.5119 12.2178C13.5521 12.1698 13.5521 12.0917 13.5119 12.0437Z" fill="#F19A37"/>
<path d="M13.439 13.2385H13.0268C12.9699 13.2385 12.9237 13.2937 12.9237 13.3616C12.9237 13.7016 12.6931 13.9771 12.4084 13.9771H11.0687V13.6078C11.0687 13.5581 11.0435 13.513 11.005 13.4941C10.9664 13.4751 10.9223 13.4857 10.8926 13.5209L10.2743 14.2595C10.2341 14.3076 10.2341 14.3856 10.2743 14.4336L10.8926 15.1722C10.9221 15.2074 10.9664 15.218 11.005 15.1988C11.0435 15.1796 11.0687 15.1348 11.0687 15.0851V14.7158H12.4084C13.0346 14.7158 13.5421 14.1096 13.5421 13.3616C13.5421 13.2937 13.4959 13.2385 13.439 13.2385Z" fill="#F19A37"/>
</svg>
