<svg width="10" height="14" viewBox="0 0 10 14" fill="none" xmlns="http://www.w3.org/2000/svg">
<path d="M3.51 8.77C3.51 8.242 3.666 7.738 3.978 7.258C4.302 6.778 4.65 6.394 5.022 6.106C5.394 5.806 5.736 5.458 6.048 5.062C6.372 4.666 6.534 4.27 6.534 3.874C6.534 3.454 6.39 3.13 6.102 2.902C5.814 2.674 5.412 2.56 4.896 2.56C3.888 2.56 3.174 3.094 2.754 4.162L0.63 2.938C0.99 2.05 1.56 1.366 2.34 0.885999C3.132 0.393999 4.014 0.147999 4.986 0.147999C6.078 0.147999 7.02 0.465999 7.812 1.102C8.616 1.726 9.018 2.59 9.018 3.694C9.018 4.198 8.91 4.666 8.694 5.098C8.49 5.53 8.238 5.902 7.938 6.214C7.65 6.514 7.356 6.802 7.056 7.078C6.768 7.342 6.516 7.618 6.3 7.906C6.096 8.194 5.994 8.482 5.994 8.77H3.51ZM5.832 12.784C5.532 13.084 5.172 13.234 4.752 13.234C4.332 13.234 3.972 13.084 3.672 12.784C3.372 12.484 3.222 12.124 3.222 11.704C3.222 11.284 3.372 10.924 3.672 10.624C3.972 10.324 4.332 10.174 4.752 10.174C5.172 10.174 5.532 10.324 5.832 10.624C6.132 10.924 6.282 11.284 6.282 11.704C6.282 12.124 6.132 12.484 5.832 12.784Z" fill="white"/>
</svg>
